<svg id="Layer_2" data-name="Layer 2" xmlns="http://www.w3.org/2000/svg" viewBox="0 0 612.699 574.893"><defs><style>.cls-1{fill:#f5f5f7;}.cls-2{fill:#e2e2e2;}.cls-3{fill:#e8e8e8;}.cls-4{fill:#fff;}.cls-5{fill:#e8f6f7;}.cls-6{fill:#ccc;}.cls-7{fill:#f2f2f2;}.cls-8{fill:#007d87;}.cls-9{fill:#00bfd8;}.cls-10{fill:#d8e5e5;}.cls-11{fill:#ffd04d;}.cls-12{fill:#d3e0e0;}.cls-13{fill:#a0616a;}.cls-14{fill:#2f2e41;}.cls-15{fill:#3f3d56;}.cls-16{fill:#6c63ff;}.cls-17{fill:#ffcfcf;}.cls-18{fill:#8c4200;}.cls-19{fill:#3d3d72;}.cls-20{fill:#3a3a3a;}</style></defs><title>header-teamwork</title><path class="cls-1" d="M173.6,210.768a130.346,130.346,0,0,1,10.788-41.138q2.435-5.439,5.36-10.639a0.794,0.794,0,0,0-1.371-.8,132.147,132.147,0,0,0-14.7,40.567q-1.1,5.964-1.66,12.011C171.914,211.785,173.5,211.778,173.6,210.768Z" transform="translate(0)"/><circle class="cls-1" cx="193.588" cy="151.482" r="10.055"/><path class="cls-1" d="M174.624,211.035a84.561,84.561,0,0,1,7-26.688q1.579-3.529,3.477-6.9a0.515,0.515,0,0,0-.889-0.52,85.73,85.73,0,0,0-9.54,26.318q-0.716,3.869-1.077,7.792C173.533,211.694,174.563,211.69,174.624,211.035Z" transform="translate(0)"/><circle class="cls-1" cx="187.594" cy="172.573" r="6.523"/><path class="cls-1" d="M173.324,210.419a84.562,84.562,0,0,1-10.9-25.348q-0.925-3.754-1.5-7.58a0.515,0.515,0,1,0-1.021.137,85.731,85.731,0,0,0,8.665,26.618q1.815,3.491,3.944,6.806C172.87,211.61,173.675,210.973,173.324,210.419Z" transform="translate(0)"/><circle class="cls-1" cx="159.895" cy="172.115" r="6.523"/><path class="cls-1" d="M153.3,216.19V203.374a4.812,4.812,0,0,1,4.806-4.806h29.9a4.812,4.812,0,0,1,4.806,4.806V216.19A4.812,4.812,0,0,1,188.01,221H158.1A4.812,4.812,0,0,1,153.3,216.19Z" transform="translate(0)"/><path class="cls-1" d="M59.038,221H46.222a4.812,4.812,0,0,1-4.806-4.806V163.856a4.812,4.812,0,0,1,4.806-4.806H59.038a4.812,4.812,0,0,1,4.806,4.806V216.19A4.812,4.812,0,0,1,59.038,221Z" transform="translate(0)"/><rect class="cls-2" x="41.95" y="169.196" width="21.361" height="4.272"/><rect class="cls-2" x="41.95" y="202.306" width="21.361" height="4.272"/><path class="cls-1" d="M91.075,221H78.263a4.812,4.812,0,0,1-4.806-4.806V163.856a4.812,4.812,0,0,1,4.806-4.806H91.075a4.812,4.812,0,0,1,4.806,4.806V216.19A4.812,4.812,0,0,1,91.075,221Z" transform="translate(0)"/><rect class="cls-2" x="73.991" y="169.196" width="21.361" height="4.272"/><rect class="cls-2" x="73.991" y="202.306" width="21.361" height="4.272"/><path class="cls-1" d="M123.121,221H110.3a4.812,4.812,0,0,1-4.806-4.806V163.856a4.812,4.812,0,0,1,4.806-4.806h12.817a4.812,4.812,0,0,1,4.806,4.806V216.19A4.812,4.812,0,0,1,123.121,221Z" transform="translate(0)"/><rect class="cls-2" x="106.033" y="169.196" width="21.361" height="4.272"/><rect class="cls-2" x="106.033" y="202.306" width="21.361" height="4.272"/><path class="cls-1" d="M73.991,134.485H61.175a4.812,4.812,0,0,1-4.806-4.806V77.344a4.812,4.812,0,0,1,4.806-4.806H73.991A4.812,4.812,0,0,1,78.8,77.344v52.334A4.812,4.812,0,0,1,73.991,134.485Z" transform="translate(0)"/><rect class="cls-2" x="56.902" y="82.684" width="21.361" height="4.272"/><rect class="cls-2" x="56.902" y="115.794" width="21.361" height="4.272"/><path class="cls-1" d="M106.033,134.485H93.216a4.812,4.812,0,0,1-4.806-4.806V77.344a4.812,4.812,0,0,1,4.806-4.806h12.817a4.812,4.812,0,0,1,4.806,4.806v52.334A4.812,4.812,0,0,1,106.033,134.485Z" transform="translate(0)"/><rect class="cls-2" x="88.944" y="82.684" width="21.361" height="4.272"/><rect class="cls-2" x="88.944" y="115.794" width="21.361" height="4.272"/><path class="cls-1" d="M138.075,134.485H125.257a4.812,4.812,0,0,1-4.806-4.806V77.344a4.812,4.812,0,0,1,4.806-4.806h12.818a4.812,4.812,0,0,1,4.806,4.806v52.334A4.812,4.812,0,0,1,138.075,134.485Z" transform="translate(0)"/><rect class="cls-2" x="120.985" y="82.684" width="21.361" height="4.272"/><rect class="cls-2" x="120.985" y="115.794" width="21.361" height="4.272"/><path class="cls-1" d="M170.116,134.485H157.3a4.812,4.812,0,0,1-4.806-4.806V77.344a4.812,4.812,0,0,1,4.806-4.806h12.817a4.812,4.812,0,0,1,4.806,4.806v52.334A4.812,4.812,0,0,1,170.116,134.485Z" transform="translate(0)"/><rect class="cls-2" x="153.027" y="82.684" width="21.361" height="4.272"/><rect class="cls-2" x="153.027" y="115.794" width="21.361" height="4.272"/><path class="cls-3" d="M179.513,136.087H51.594a1.5,1.5,0,0,1-.015-2.121l0.015-.015H179.513a1.5,1.5,0,0,1,.015,2.121Z" transform="translate(0)"/><path class="cls-3" d="M196.958,222.6H37.886a1.3,1.3,0,0,1,0-2.136H196.958A1.3,1.3,0,0,1,196.958,222.6Z" transform="translate(0)"/><rect class="cls-4" x="222.004" width="390.282" height="268.259" rx="6.898" ry="6.898"/><path class="cls-5" d="M607.237,0H227.46A5.461,5.461,0,0,0,222,5.456V262.8a5.461,5.461,0,0,0,5.456,5.456H607.237a5.451,5.451,0,0,0,4.148-1.915,1.286,1.286,0,0,0,.119-0.15,5.11,5.11,0,0,0,.782-1.32,5.323,5.323,0,0,0,.413-2.071V5.456A5.462,5.462,0,0,0,607.237,0Zm3.9,262.8a3.863,3.863,0,0,1-.645,2.14,4.033,4.033,0,0,1-1.476,1.326,3.869,3.869,0,0,1-1.783.432H227.46a3.9,3.9,0,0,1-3.9-3.9V5.456a3.9,3.9,0,0,1,3.9-3.9H607.237a3.9,3.9,0,0,1,3.9,3.9h0V262.8Z" transform="translate(0)"/><rect class="cls-5" x="222.782" y="21.866" width="389.135" height="1.56"/><circle class="cls-6" cx="236.039" cy="11.697" r="4.679"/><circle class="cls-6" cx="249.491" cy="11.697" r="4.679"/><circle class="cls-6" cx="262.943" cy="11.697" r="4.679"/><path class="cls-7" d="M565.775,134.937H262.325A10.648,10.648,0,0,1,251.689,124.3V59.858a10.648,10.648,0,0,1,10.636-10.636h303.45a10.648,10.648,0,0,1,10.636,10.636V124.3A10.648,10.648,0,0,1,565.775,134.937ZM262.325,50.473a9.4,9.4,0,0,0-9.385,9.385V124.3a9.4,9.4,0,0,0,9.385,9.385h303.45a9.4,9.4,0,0,0,9.385-9.385V59.858a9.4,9.4,0,0,0-9.385-9.385H262.325Z" transform="translate(0)"/><path class="cls-7" d="M329.275,251.311h-66.95a10.648,10.648,0,0,1-10.636-10.636v-47.55a10.648,10.648,0,0,1,10.636-10.636h66.95a10.648,10.648,0,0,1,10.636,10.636v47.55A10.648,10.648,0,0,1,329.275,251.311Zm-66.95-67.572a9.4,9.4,0,0,0-9.385,9.385v47.55a9.4,9.4,0,0,0,9.385,9.385h66.95a9.4,9.4,0,0,0,9.385-9.385v-47.55a9.4,9.4,0,0,0-9.385-9.385h-66.95Z" transform="translate(0)"/><path class="cls-7" d="M452.527,251.311H385.581a10.648,10.648,0,0,1-10.636-10.636v-47.55a10.648,10.648,0,0,1,10.636-10.636h66.946a10.648,10.648,0,0,1,10.636,10.636v47.55A10.648,10.648,0,0,1,452.527,251.311Zm-66.946-67.572a9.4,9.4,0,0,0-9.385,9.385v47.55a9.4,9.4,0,0,0,9.385,9.385h66.946a9.4,9.4,0,0,0,9.385-9.385v-47.55a9.4,9.4,0,0,0-9.385-9.385H385.581Z" transform="translate(0)"/><rect class="cls-7" x="414.895" y="-73.013" width="1.251" height="329.972" transform="translate(227.433 473.732) rotate(-76.252)"/><rect class="cls-7" x="250.468" y="91.454" width="327.16" height="1.251" transform="translate(-9.993 102.266) rotate(-13.914)"/><path class="cls-4" d="M578.285,156.523H274.838A10.335,10.335,0,0,1,264.515,146.2V81.756a10.335,10.335,0,0,1,10.323-10.323H578.285a10.335,10.335,0,0,1,10.323,10.323V146.2A10.335,10.335,0,0,1,578.285,156.523Z" transform="translate(0)"/><rect class="cls-7" x="418.226" y="166.234" width="1.251" height="101.701" transform="translate(-9.937 413.815) rotate(-52.043)"/><rect class="cls-7" x="369.106" y="216.841" width="101.353" height="1.251" transform="translate(-43.853 309.94) rotate(-38.666)"/><rect class="cls-7" x="294.969" y="166.235" width="1.251" height="101.701" transform="translate(-57.382 316.631) rotate(-52.043)"/><rect class="cls-7" x="245.851" y="216.841" width="101.353" height="1.251" transform="translate(-70.87 232.932) rotate(-38.666)"/><path class="cls-8" d="M461.912,288.171H394.966a10.335,10.335,0,0,1-10.323-10.323V230.3a10.335,10.335,0,0,1,10.323-10.323h66.946A10.335,10.335,0,0,1,472.235,230.3v47.55A10.335,10.335,0,0,1,461.912,288.171Z" transform="translate(0)"/><path class="cls-4" d="M437.168,251.131H419.65a5.006,5.006,0,0,1,0-10.011h17.519A5.006,5.006,0,1,1,437.168,251.131Z" transform="translate(0)"/><path class="cls-4" d="M447.521,268.024H409.356a5.005,5.005,0,0,1,0-10.011h38.165A5.005,5.005,0,1,1,447.521,268.024Z" transform="translate(0)"/><path class="cls-9" d="M339.907,260.383H272.961a10.335,10.335,0,0,1-10.323-10.323V202.51a10.335,10.335,0,0,1,10.323-10.323h66.946A10.335,10.335,0,0,1,350.23,202.51v47.55A10.335,10.335,0,0,1,339.907,260.383Z" transform="translate(0)"/><path class="cls-4" d="M315.164,222.843H297.646a5.006,5.006,0,0,1,0-10.011h17.519A5.006,5.006,0,1,1,315.164,222.843Z" transform="translate(0)"/><path class="cls-4" d="M325.517,239.736H287.352a5.006,5.006,0,0,1,0-10.011h38.165A5.006,5.006,0,0,1,325.517,239.736Z" transform="translate(0)"/><path class="cls-10" d="M580.162,240.049H513.216a10.335,10.335,0,0,1-10.323-10.323v-47.55a10.335,10.335,0,0,1,10.323-10.323h66.946a10.335,10.335,0,0,1,10.323,10.323v47.55A10.335,10.335,0,0,1,580.162,240.049Z" transform="translate(0)"/><path class="cls-4" d="M555.418,202.51H537.9a5.006,5.006,0,0,1,0-10.011h17.519A5.006,5.006,0,1,1,555.418,202.51Z" transform="translate(0)"/><path class="cls-4" d="M565.775,219.4H527.606a5.006,5.006,0,0,1,0-10.011h38.169A5.006,5.006,0,0,1,565.775,219.4Z" transform="translate(0)"/><path class="cls-8" d="M439.115,155.419v0.791h-133.7v-0.828l0.72-1.018,42.389-59.843a2.118,2.118,0,0,1,3.435,0l28.416,40.128,20.234-28.314a2.118,2.118,0,0,1,3.429,0l34.355,48.072Z" transform="translate(0)"/><circle class="cls-11" cx="305.133" cy="100.04" r="15.562"/><path class="cls-2" d="M578.285,156.836H274.838A10.648,10.648,0,0,1,264.2,146.2V81.756A10.648,10.648,0,0,1,274.838,71.12H578.285a10.648,10.648,0,0,1,10.636,10.636V146.2A10.648,10.648,0,0,1,578.285,156.836ZM274.838,72.371a9.4,9.4,0,0,0-9.385,9.385V146.2a9.4,9.4,0,0,0,9.385,9.385H578.285a9.4,9.4,0,0,0,9.385-9.385V81.756a9.4,9.4,0,0,0-9.385-9.385H274.838Z" transform="translate(0)"/><path class="cls-12" d="M269.206,469.441c0-8.258-31.082-14.953-69.423-14.953s-69.423,6.7-69.423,14.953c0,5.293,12.779,9.939,32.041,12.6v81.925a6.942,6.942,0,1,0,13.885,0v-80.45c7.34,0.569,15.248.88,23.5,0.88s16.157-.311,23.5-0.88v80.45a6.943,6.943,0,0,0,13.885,0V482.038C256.428,479.38,269.206,474.733,269.206,469.441Z" transform="translate(0)"/><polygon class="cls-13" points="255.848 557.473 268.943 557.473 275.171 506.967 255.846 506.967 255.848 557.473"/><path class="cls-14" d="M294.2,569.63H253.043v-15.9H278.3a15.9,15.9,0,0,1,15.9,15.9h0Z" transform="translate(0)"/><polygon class="cls-13" points="276.289 550.166 288.782 546.245 279.605 496.191 261.166 501.976 276.289 550.166"/><path class="cls-14" d="M316.517,550.284l-39.265,12.322h0l-4.761-15.17h0l24.094-7.561a15.9,15.9,0,0,1,19.931,10.41h0Z" transform="translate(0)"/><path class="cls-8" d="M267.528,526.919l-23.953-62.877c-5.374,1.262-50.44,11.234-65.534-4.836-5.173-5.508-6.182-13.488-3-23.719l8.809-11.07,0.274,0.015c3.331,0.175,81.637,4.564,87,28.184,4.526,19.913,12.792,57.039,15.217,67.944a4.823,4.823,0,0,1-3.006,5.536l-9.633,3.612a4.765,4.765,0,0,1-1.679.306A4.82,4.82,0,0,1,267.528,526.919Z" transform="translate(0)"/><path class="cls-8" d="M253.644,534.4l-23.953-62.877c-5.374,1.262-50.44,11.233-65.534-4.836-5.173-5.508-6.182-13.488-3-23.719l8.809-11.07,0.274,0.015c3.331,0.175,81.637,4.564,87,28.184,4.526,19.913,12.792,57.039,15.217,67.944a4.823,4.823,0,0,1-3.006,5.536l-9.633,3.612a4.765,4.765,0,0,1-1.679.306A4.82,4.82,0,0,1,253.644,534.4Z" transform="translate(0)"/><path class="cls-13" d="M286.014,383.67a11.242,11.242,0,0,0-.945,1.5l-52.676,5.55-7.583-10.4-17.186,9.393,14.893,25.229,64.6-16.472a11.21,11.21,0,1,0-1.107-14.8h0Z" transform="translate(0)"/><path class="cls-11" d="M160.819,446.283a4.814,4.814,0,0,1-1.944-4.645c2.972-19.591-.447-47.655-3.839-67.749a26.483,26.483,0,0,1,29.439-30.719,85.3,85.3,0,0,1,10.587,2.087h0A26.27,26.27,0,0,1,214.9,371.39c-0.507,19.39,3.43,43.582,5.146,53.083a4.826,4.826,0,0,1-.89,3.75,4.691,4.691,0,0,1-3.306,1.869c-19.02,1.941-39.531,11.217-50.064,16.573a4.807,4.807,0,0,1-2.189.535A4.73,4.73,0,0,1,160.819,446.283Z" transform="translate(0)"/><path class="cls-11" d="M212.161,395.752a4.775,4.775,0,0,1-2.642-2.561l-10.607-24.5a12.282,12.282,0,0,1,22.544-9.757l10.607,24.5a4.812,4.812,0,0,1-2.5,6.32l-13.722,5.94a4.773,4.773,0,0,1-3.678.058h0Z" transform="translate(0)"/><path class="cls-13" d="M235.816,381.534a11.24,11.24,0,0,0-.945,1.5l-52.676,5.55-7.583-10.4-17.186,9.393,14.893,25.229,64.6-16.472a11.21,11.21,0,1,0-1.107-14.8h0Z" transform="translate(0)"/><path class="cls-11" d="M161.962,396.82a4.775,4.775,0,0,1-2.642-2.561l-10.607-24.5a12.282,12.282,0,1,1,22.535-9.778l0.009,0.02,10.607,24.5a4.812,4.812,0,0,1-2.5,6.32l-13.722,5.94a4.773,4.773,0,0,1-3.678.058h0Z" transform="translate(0)"/><circle class="cls-13" cx="182.519" cy="308.602" r="26.232"/><path class="cls-14" d="M163.764,326.605a2.28,2.28,0,0,1,1.983-3.011,5.266,5.266,0,0,1,3.713,1.832,14.775,14.775,0,0,0,3.28,2.817c1.269,0.64,2.99.548,3.713-.671,0.679-1.145.214-2.679-.2-4.009a39.418,39.418,0,0,1-1.741-10.435c-0.118-3.952.439-8.077,2.627-11.159,2.824-3.978,7.873-5.489,12.652-5.379s9.479,1.585,14.213,2.517c1.634,0.322,3.555.486,4.648-.78,1.162-1.347.735-3.526,0.241-5.344-1.283-4.718-2.643-9.6-5.624-13.406a20.184,20.184,0,0,0-12.882-7.252,30.908,30.908,0,0,0-14.378,1.632,38.553,38.553,0,0,0-18.886,13.157,31.225,31.225,0,0,0-5.958,23.07,28.482,28.482,0,0,0,10.559,18Z" transform="translate(0)"/><path class="cls-15" d="M63.6,389.758A130.346,130.346,0,0,1,74.391,348.62q2.435-5.439,5.36-10.639a0.794,0.794,0,0,0-1.371-.8,132.147,132.147,0,0,0-14.7,40.567q-1.1,5.963-1.66,12.011C61.921,390.775,63.509,390.768,63.6,389.758Z" transform="translate(0)"/><circle class="cls-16" cx="83.595" cy="330.472" r="10.055"/><path class="cls-15" d="M64.631,390.025a84.561,84.561,0,0,1,7-26.688q1.58-3.529,3.477-6.9a0.515,0.515,0,0,0-.889-0.52,85.73,85.73,0,0,0-9.54,26.318q-0.716,3.869-1.077,7.792C63.54,390.685,64.575,390.68,64.631,390.025Z" transform="translate(0)"/><circle class="cls-16" cx="77.601" cy="351.563" r="6.523"/><path class="cls-15" d="M63.331,389.409a84.562,84.562,0,0,1-10.9-25.348q-0.925-3.754-1.5-7.58a0.515,0.515,0,1,0-1.021.137,85.731,85.731,0,0,0,8.665,26.618q1.815,3.491,3.944,6.806c0.358,0.558,1.167-.079.812-0.634h0Z" transform="translate(0)"/><circle class="cls-16" cx="49.902" cy="351.106" r="6.523"/><path class="cls-6" d="M43.306,395.18V382.364a4.812,4.812,0,0,1,4.806-4.806h29.9a4.812,4.812,0,0,1,4.806,4.806V395.18a4.812,4.812,0,0,1-4.806,4.806h-29.9A4.812,4.812,0,0,1,43.306,395.18Z" transform="translate(0)"/><path class="cls-10" d="M227.018,391.473h84.376a3.738,3.738,0,0,1,3.738,3.738h0a3.738,3.738,0,0,1-3.738,3.738H227.018a3.738,3.738,0,0,1-3.738-3.738h0a3.738,3.738,0,0,1,3.738-3.738h0Z" transform="translate(0)"/><path class="cls-10" d="M368,398.949H272.945A6.95,6.95,0,0,1,266,392.007V339.673a6.95,6.95,0,0,1,6.942-6.942H368a6.95,6.95,0,0,1,6.942,6.942v52.334A6.95,6.95,0,0,1,368,398.949Z" transform="translate(0)"/><circle class="cls-4" cx="320.473" cy="365.84" r="6.408"/><path class="cls-12" d="M609.914,469.441c0-8.258-31.082-14.953-69.423-14.953s-69.423,6.7-69.423,14.953c0,5.293,12.779,9.939,32.041,12.6v81.925a6.943,6.943,0,0,0,13.885,0v-80.45c7.34,0.569,15.248.88,23.5,0.88s16.157-.311,23.5-0.88v80.45a6.943,6.943,0,1,0,13.885,0V482.038C597.136,479.38,609.914,474.733,609.914,469.441Z" transform="translate(0)"/><circle class="cls-14" cx="548.167" cy="302.673" r="29.905"/><polygon class="cls-17" points="473.745 558.541 460.651 558.541 454.422 508.035 473.748 508.035 473.745 558.541"/><path class="cls-18" d="M451.3,554.8h25.253v15.9H435.4a15.9,15.9,0,0,1,15.9-15.9h0Z" transform="translate(0)"/><polygon class="cls-17" points="453.305 551.234 440.812 547.313 449.989 497.259 468.428 503.044 453.305 551.234"/><path class="cls-18" d="M433.008,540.943L457.1,548.5h0l-4.761,15.17h0l-39.266-12.322h0a15.9,15.9,0,0,1,19.931-10.409h0Z" transform="translate(0)"/><path class="cls-19" d="M457.565,531.082a4.765,4.765,0,0,1-1.679-.306l-9.633-3.612a4.823,4.823,0,0,1-3.006-5.536c2.425-10.9,10.691-48.031,15.217-67.944,5.368-23.62,83.674-28.009,87-28.184l0.274-.015,8.809,11.069c3.183,10.231,2.174,18.211-3,23.719-15.094,16.071-60.16,6.1-65.534,4.836l-23.948,62.878A4.82,4.82,0,0,1,457.565,531.082Z" transform="translate(0)"/><path class="cls-19" d="M471.45,538.558a4.765,4.765,0,0,1-1.679-.306l-9.633-3.612a4.823,4.823,0,0,1-3.006-5.536c2.425-10.9,10.691-48.031,15.217-67.944,5.368-23.62,83.674-28.009,87-28.184l0.274-.015,8.809,11.069c3.183,10.231,2.174,18.211-3,23.719-15.094,16.07-60.16,6.1-65.534,4.836l-23.953,62.877A4.82,4.82,0,0,1,471.45,538.558Z" transform="translate(0)"/><path class="cls-17" d="M443.575,384.738a11.24,11.24,0,0,1,.945,1.5l52.676,5.55,7.583-10.4,17.186,9.393-14.89,25.229-64.6-16.472a11.21,11.21,0,1,1,1.107-14.8h-0.007Z" transform="translate(0)"/><path class="cls-8" d="M565.992,448.267a4.807,4.807,0,0,1-2.189-.535c-10.533-5.356-31.044-14.631-50.064-16.573a4.691,4.691,0,0,1-3.306-1.869,4.826,4.826,0,0,1-.89-3.75c1.716-9.5,5.653-33.694,5.146-53.083a26.27,26.27,0,0,1,19.847-26.133h0a85.3,85.3,0,0,1,10.587-2.087,26.483,26.483,0,0,1,29.435,30.719c-3.392,20.094-6.811,48.158-3.839,67.749a4.814,4.814,0,0,1-1.942,4.645A4.73,4.73,0,0,1,565.992,448.267Z" transform="translate(0)"/><path class="cls-8" d="M515.663,397.16a4.8,4.8,0,0,1-1.908-.4l-13.722-5.94a4.812,4.812,0,0,1-2.5-6.32L508.139,360a12.282,12.282,0,1,1,22.552,9.737l-0.009.02-10.607,24.5a4.818,4.818,0,0,1-4.412,2.9h0v0Z" transform="translate(0)"/><circle class="cls-17" cx="547.074" cy="309.67" r="26.232"/><path class="cls-14" d="M520.37,296.781A94.619,94.619,0,0,0,561.3,310.269l-4.315-5.17a31.709,31.709,0,0,0,9.795,1.945c3.343-.052,6.846-1.339,8.743-4.092a9.978,9.978,0,0,0,.668-9.217,18.9,18.9,0,0,0-5.945-7.434,35.4,35.4,0,0,0-32.943-5.888,21.154,21.154,0,0,0-9.839,6.312c-2.487,3.068-7.274,5.8-6,9.539Z" transform="translate(0)"/><path class="cls-14" d="M551.485,275.612a80.621,80.621,0,0,0-29.332-18.968c-7.09-2.627-14.808-4.25-22.221-2.758s-14.423,6.62-16.491,13.893c-1.691,5.947.055,12.351,2.679,17.949s6.128,10.79,8.25,16.6a37.882,37.882,0,0,1-38.118,50.8c7.283,0.977,14,4.4,21.116,6.221s15.522,1.7,20.812-3.4c5.6-5.4,5.71-14.17,5.439-21.94l-1.207-34.653c-0.205-5.891-.38-11.97,1.744-17.468s7.173-10.313,13.067-10.263c4.467,0.038,8.421,2.744,12,5.413s7.374,5.516,11.824,5.913,9.53-2.9,9.2-7.351" transform="translate(0)"/><polygon class="cls-10" points="429.55 365.418 489.951 366.844 498.701 431.414 442.92 432.665 429.55 365.418"/><path class="cls-17" d="M493.775,382.6a11.24,11.24,0,0,1,.945,1.5l52.676,5.55,7.583-10.4,17.186,9.393-14.89,25.231-64.6-16.474a11.21,11.21,0,1,1,1.107-14.8h-0.007Z" transform="translate(0)"/><path class="cls-8" d="M565.862,398.228a4.8,4.8,0,0,1-1.908-.4l-13.722-5.94a4.812,4.812,0,0,1-2.5-6.32l10.607-24.5a12.282,12.282,0,1,1,22.552,9.737l-0.009.02-10.607,24.5a4.818,4.818,0,0,1-4.412,2.9h0v0Z" transform="translate(0)"/><path class="cls-15" d="M51.275,411.766H423.006v0.09L341.7,559.229a6.942,6.942,0,0,0,12.024,6.942h0l69.286-125.579v122.3a6.943,6.943,0,1,0,13.885,0V415.427l2.02-3.661H441.7a6.943,6.943,0,1,0,0-13.885H16.613a6.943,6.943,0,0,0,0,13.885H28.9" transform="translate(0)"/><path class="cls-14" d="M38.128,247.711v-23.25a34.974,34.974,0,1,1,69.949,0v23.25a1.874,1.874,0,0,1-1.872,1.872h-2.1a1.874,1.874,0,0,1-1.711-1.112l-0.5-1.121a0.887,0.887,0,0,0-1.7.361,1.874,1.874,0,0,1-1.872,1.872H40A1.874,1.874,0,0,1,38.128,247.711Z" transform="translate(0)"/><polygon class="cls-17" points="111.575 563.677 123.174 567.56 129.399 517.089 111.573 517.09 111.575 563.677"/><path class="cls-18" d="M146.947,574.891h-37.96V560.227h0" transform="translate(0)"/><polygon class="cls-17" points="21.922 563.677 34 563.677 39.746 517.089 21.92 517.09 21.922 563.677"/><path class="cls-18" d="M57.294,574.891H19.334V560.227H42.627a14.666,14.666,0,0,1,14.667,14.665h0v0Z" transform="translate(0)"/><path class="cls-20" d="M91.923,521.908L68.568,426.984a3.448,3.448,0,0,0-6.791.632l-5.2,92.835a4.433,4.433,0,0,1-4.675,4.177h0l-0.1-.007L10.275,521.3A4.43,4.43,0,0,1,6.2,516.768c0.547-20.425,11-162.924,40.821-194.073a4.416,4.416,0,0,1,4.112-1.223L90.952,332.31a4.445,4.445,0,0,1,3.377,3.345l43.876,176.851a4.433,4.433,0,0,1-3.348,5.3l-0.125.026L97.075,525.2a4.427,4.427,0,0,1-5.157-3.291h0Z" transform="translate(0)"/><circle class="cls-17" cx="77.881" cy="224.872" r="24.197"/><path class="cls-8" d="M90.451,334.94l-41.776-9.378a4.427,4.427,0,0,1-3.44-3.881l-2.906-28.793A31.538,31.538,0,0,1,66.85,258.9q0.5-.111,1-0.216h0a31,31,0,0,1,28.91,9.063,31.529,31.529,0,0,1,7.775,29.815l-8.824,34.164a4.411,4.411,0,0,1-4.276,3.327A4.526,4.526,0,0,1,90.451,334.94Z" transform="translate(0)"/><path class="cls-17" d="M1.513,387.058a8.943,8.943,0,0,1,3.838-13.165l21.7-65.288,17.013,9.424L17.475,379.043a8.992,8.992,0,0,1-15.959,8.015h0Z" transform="translate(0)"/><path class="cls-17" d="M129.375,391.764A8.943,8.943,0,0,0,127,378.258l-14.421-67.27-17.942,7.506,19.752,63.558a8.992,8.992,0,0,0,14.986,9.713h0Z" transform="translate(0)"/><path class="cls-8" d="M43.393,323.107a3.65,3.65,0,0,1-1.8-.213l-17.432-6.728a3.668,3.668,0,0,1-2.168-4.556l11.759-36.175a14.521,14.521,0,0,1,6.348-8.113,14.125,14.125,0,0,1,14.437.03,13.47,13.47,0,0,1,4.258,3.943,14.068,14.068,0,0,1,1.634,13.3l-14.1,36.21A3.675,3.675,0,0,1,43.393,323.107Z" transform="translate(0)"/><path class="cls-8" d="M93.04,321.24L82.99,283.7a14.068,14.068,0,0,1,3.08-13.039,13.47,13.47,0,0,1,4.664-3.454,14.125,14.125,0,0,1,14.354,1.55,14.521,14.521,0,0,1,5.422,8.759l7.729,37.245a3.668,3.668,0,0,1-2.653,4.291l-18.064,4.78A3.672,3.672,0,0,1,93.04,321.24Z" transform="translate(0)"/><path class="cls-14" d="M49.95,216.58a25.122,25.122,0,0,1,50.245,0h0v1.478h-6.5a1.668,1.668,0,0,1-1.354-.7l-1.181-1.653a0.679,0.679,0,0,0-1.227.478,1.664,1.664,0,0,1-1.652,1.871H49.95V216.58Z" transform="translate(0)"/><path class="cls-8" d="M550.329,154.959v0.751H423.437v-0.786l0.683-.966,40.229-56.794a2.01,2.01,0,0,1,3.26,0l26.976,38.084,19.2-26.872a2.01,2.01,0,0,1,3.254,0L549.646,154Z" transform="translate(0)"/></svg>